<?xml version="1.0" standalone="no"?>
<!DOCTYPE svg PUBLIC "-//W3C//DTD SVG 20010904//EN"
 "http://www.w3.org/TR/2001/REC-SVG-20010904/DTD/svg10.dtd">
<svg version="1.0" xmlns="http://www.w3.org/2000/svg"
 width="1280.000000pt" height="1168.000000pt" viewBox="0 0 1280.000000 1168.000000"
 preserveAspectRatio="xMidYMid meet">
<metadata>
Created by potrace 1.15, written by Peter Selinger 2001-2017
</metadata>
<g transform="translate(0.000000,1168.000000) scale(0.100000,-0.100000)"
fill="#ffffff" stroke="none">
<path d="M1741 11653 c1 -16 -2 -122 -6 -238 -6 -189 -10 -221 -36 -316 -34
-122 -35 -133 -14 -384 8 -104 24 -309 35 -455 11 -146 22 -285 25 -310 2 -25
11 -142 20 -260 9 -118 18 -233 20 -255 4 -49 42 -535 55 -705 9 -124 15 -223
50 -890 9 -190 18 -346 19 -347 5 -9 98 -43 117 -43 18 0 24 -6 24 -22 1 -13
7 -162 15 -333 8 -170 24 -503 35 -740 11 -236 29 -628 41 -870 11 -242 23
-505 26 -585 8 -192 -23 -689 -52 -841 -14 -76 -69 -176 -223 -404 -86 -127
-120 -166 -367 -415 -150 -151 -288 -297 -307 -325 -19 -27 -65 -95 -103 -150
-82 -119 -112 -188 -160 -363 -42 -152 -45 -220 -21 -380 18 -117 40 -166 126
-286 83 -115 128 -155 273 -242 118 -70 144 -81 310 -130 99 -30 192 -54 204
-54 13 0 56 -7 96 -15 134 -27 280 -35 436 -24 226 16 343 39 576 118 l210 70
7 -47 c10 -75 49 -163 165 -377 103 -192 112 -204 193 -280 130 -122 349 -302
405 -334 115 -65 298 -133 395 -147 52 -8 123 -19 156 -24 81 -13 196 -13 286
1 396 61 484 90 730 241 157 96 174 114 422 451 131 177 225 377 281 597 12
51 40 302 35 325 -1 6 -2 24 -1 41 1 29 6 33 64 55 145 54 228 119 338 269 40
54 75 97 77 96 1 -2 23 -99 48 -216 24 -116 51 -224 58 -238 46 -87 140 -140
292 -162 120 -18 457 -2 1061 50 138 12 163 7 163 -38 0 -45 22 -74 67 -91 37
-13 56 -13 140 -3 103 13 272 24 618 42 237 12 525 32 885 61 135 11 349 27
477 37 256 19 256 19 295 95 20 39 18 62 -17 207 -2 8 -11 49 -20 90 -9 41
-18 82 -20 90 -2 8 -22 96 -44 195 -21 99 -58 263 -81 365 -23 102 -53 232
-65 290 -22 99 -52 237 -60 270 -2 8 -13 60 -25 115 -12 55 -30 136 -40 180
-10 44 -28 125 -40 180 -12 55 -30 136 -40 180 -10 44 -27 123 -39 175 -17 80
-95 422 -106 470 -2 8 -13 60 -25 115 -12 55 -30 136 -40 180 -30 132 -61 275
-80 365 -10 47 -31 117 -45 155 -29 74 -67 198 -135 435 -23 80 -53 183 -67
230 -13 47 -44 153 -68 235 -24 83 -67 231 -95 329 -48 166 -51 181 -35 192
18 13 20 36 64 675 11 157 23 303 26 325 3 21 12 167 21 324 8 157 17 314 19
350 3 36 14 216 25 400 11 184 29 486 40 670 11 184 29 486 40 670 11 184 24
395 29 469 5 74 7 140 4 147 -5 15 40 14 332 -6 77 -5 258 -15 402 -21 l263
-12 144 43 144 43 42 76 41 76 9 250 c5 137 6 253 3 258 -3 6 -45 7 -97 3 -50
-4 -392 -13 -761 -20 l-669 -14 -68 34 c-64 32 -73 34 -173 34 l-105 0 -93
-46 -92 -47 -116 7 c-64 4 -588 16 -1165 27 -577 10 -1517 28 -2089 39 -781
14 -1423 19 -2578 20 l-1537 0 1 -27z m316 -668 c11 -130 16 -139 81 -150 l42
-7 0 138 0 138 44 -43 43 -42 7 -212 c10 -281 10 -308 -8 -402 -8 -44 -17 -95
-21 -114 -8 -48 -19 -65 -69 -106 -44 -36 -45 -36 -88 -24 -24 7 -48 17 -54
23 -16 16 -73 213 -78 271 -3 28 -14 148 -25 268 -18 196 -19 221 -5 260 24
69 63 117 94 117 l27 0 10 -115z m1055 5 c425 -17 584 -26 589 -34 0 0 9 -98
19 -216 11 -118 28 -314 39 -435 11 -121 29 -326 41 -455 11 -129 23 -253 25
-275 2 -22 11 -121 20 -220 8 -99 18 -205 20 -235 3 -30 15 -158 26 -285 23
-262 49 -561 78 -880 11 -121 27 -305 36 -410 9 -104 18 -196 20 -202 3 -7 17
-13 32 -13 55 0 54 0 74 -281 10 -145 20 -291 23 -324 3 -33 12 -159 21 -280
22 -295 20 -272 45 -595 102 -1350 95 -1225 77 -1438 -17 -201 -24 -224 -131
-457 -71 -153 -353 -549 -516 -725 -59 -63 -121 -130 -137 -149 l-30 -35 -64
54 c-35 30 -129 118 -209 196 -80 77 -183 169 -230 204 -116 86 -316 284 -344
340 -12 25 -43 83 -68 130 -30 56 -50 107 -57 150 -6 36 -13 76 -16 90 -38
188 -49 574 -60 1995 -3 407 -8 855 -11 995 l-6 255 77 25 78 25 -2 145 c-2
168 -30 1896 -36 2260 -11 610 -17 804 -30 935 -20 197 -25 179 41 171 31 -4
286 -15 566 -26z m2528 -19 c0 -6 -11 -45 -24 -88 l-25 -78 9 -320 c5 -176 14
-509 20 -740 6 -231 15 -546 20 -700 5 -154 19 -561 30 -905 11 -344 22 -656
24 -695 l5 -70 54 -3 54 -3 6 -282 c4 -155 10 -651 14 -1103 l6 -821 -61 -114
c-57 -107 -70 -123 -199 -249 -76 -75 -176 -171 -222 -214 -75 -70 -91 -92
-156 -215 -40 -75 -78 -154 -84 -176 -44 -161 -62 -259 -70 -391 -5 -80 -11
-148 -14 -150 -3 -3 -47 25 -99 63 -51 37 -121 88 -155 113 -69 51 -66 45
-100 160 -122 415 -121 408 -133 980 -6 267 -17 730 -25 1030 -8 300 -14 728
-15 951 l0 406 44 17 c41 16 46 21 69 85 l25 68 -9 239 c-5 131 -11 286 -13
344 -2 58 -11 296 -20 530 -8 234 -20 522 -26 640 -5 118 -15 334 -20 480 -15
389 -37 708 -60 855 -6 33 -17 105 -25 160 -17 118 -24 155 -30 173 -3 9 13
12 58 13 34 1 166 5 292 8 371 12 855 12 855 2z m1327 -20 c233 -10 425 -20
427 -22 2 -2 -3 -76 -11 -164 -12 -136 -13 -398 -7 -1742 l6 -1581 52 -8 c28
-4 54 -7 59 -6 11 3 8 -1726 -3 -1773 -6 -22 -19 -87 -31 -145 -16 -83 -30
-122 -66 -187 -44 -79 -49 -84 -177 -174 -331 -234 -442 -324 -506 -408 -30
-39 -58 -71 -63 -71 -9 0 -136 77 -250 153 -70 46 -229 206 -240 242 -4 11
-13 70 -21 131 -12 96 -12 169 0 545 8 239 23 706 33 1039 11 333 20 606 20
608 1 1 16 2 35 2 l33 0 7 178 c4 97 8 218 10 267 5 144 36 920 40 1035 3 58
14 344 26 635 11 292 24 629 29 750 5 124 5 242 0 270 -15 87 -50 318 -55 364
-3 24 -13 55 -22 69 l-16 25 134 -7 c74 -4 325 -15 557 -25z m2083 -138 c-1
-129 -16 -936 -40 -2023 -5 -256 -15 -589 -21 -740 -12 -296 -13 -327 -29
-735 -12 -323 -17 -355 -60 -431 -38 -68 -202 -360 -234 -419 -13 -22 -67
-119 -121 -215 -54 -96 -140 -249 -190 -340 -51 -91 -122 -218 -159 -283 l-66
-117 0 -234 0 -234 -82 44 c-114 60 -175 128 -222 245 l-36 89 1 343 c0 188 4
396 9 462 11 150 50 735 65 985 3 52 8 118 11 146 l5 52 50 6 c27 4 49 8 50 9
0 1 9 155 19 342 31 553 59 1039 70 1210 5 88 15 291 21 450 47 1190 47 1286
9 1421 -11 38 -20 77 -20 86 0 17 29 18 485 18 l485 0 0 -137z m-3083 -103
c49 0 53 2 91 47 l40 47 9 -40 c12 -61 9 -412 -5 -589 -12 -151 -15 -162 -39
-187 -22 -23 -35 -28 -78 -28 -46 0 -55 4 -87 38 -30 30 -41 54 -62 135 -25
95 -26 109 -26 390 l0 291 53 -52 c50 -49 55 -52 104 -52z m1693 61 c18 -43
80 -81 134 -81 46 0 56 9 56 56 0 13 4 24 8 24 5 0 14 -55 20 -122 7 -68 16
-145 20 -173 9 -66 8 -163 -1 -200 -4 -16 -10 -55 -13 -85 -3 -30 -10 -68 -16
-83 -14 -35 -87 -99 -107 -93 -9 2 -33 7 -54 11 -32 5 -40 12 -62 55 l-25 49
0 313 c0 301 3 358 20 358 4 0 13 -13 20 -29z m1982 -94 c-6 -23 -13 -67 -17
-98 -7 -56 -7 -56 -53 -72 -26 -10 -69 -17 -97 -17 -46 0 -52 3 -72 35 -17 25
-23 50 -23 87 l0 53 78 0 c72 0 81 3 132 37 30 20 57 32 59 26 1 -5 -2 -28 -7
-51z m-5410 -260 c13 -70 13 -86 -2 -155 -16 -77 -16 -77 -51 -80 -76 -6 -109
75 -135 328 -8 80 -17 154 -20 165 -5 16 -4 18 7 8 22 -22 103 -16 125 8 20
23 20 24 76 -274z m5660 -5609 c39 -41 50 -72 42 -114 -10 -57 -60 -83 -119
-64 -20 7 -37 20 -41 33 -4 12 -13 26 -19 32 -7 5 -16 27 -19 48 -6 33 -3 41
23 67 42 43 92 42 133 -2z m-462 12 c21 0 70 -54 79 -86 12 -42 -1 -76 -36
-100 -32 -20 -98 -10 -128 20 -26 26 -40 98 -24 127 12 23 67 51 87 44 8 -3
17 -5 22 -5z m-409 -35 c34 -18 69 -69 69 -102 0 -57 -40 -93 -103 -93 -81 0
-137 85 -103 157 24 51 81 67 137 38z m-395 -40 c18 -19 34 -47 36 -63 4 -33
-26 -82 -52 -82 -10 0 -20 -7 -24 -15 -7 -18 -28 -19 -59 -3 -12 6 -29 14 -37
18 -25 12 -42 57 -30 80 7 13 7 20 0 20 -17 0 -11 17 16 49 22 26 33 31 71 31
39 0 50 -5 79 -35z m-414 -795 c40 -781 58 -1098 64 -1145 4 -27 4 -48 1 -44
-4 3 -16 70 -27 150 -12 79 -30 203 -41 274 -11 72 -29 193 -40 270 -11 77
-22 154 -24 170 -3 17 -14 120 -25 230 -11 110 -24 236 -29 280 -8 72 -7 83
11 113 18 29 25 33 57 30 l36 -3 17 -325z m-330 297 c30 -25 41 -76 79 -367
11 -85 29 -218 39 -295 11 -77 28 -207 39 -290 11 -82 23 -166 25 -185 9 -57
36 -254 57 -415 11 -82 21 -161 24 -175 7 -48 36 -274 39 -304 2 -17 7 -59 11
-94 10 -81 -6 -102 -76 -102 -52 0 -79 18 -79 52 0 11 -7 47 -16 81 -8 33 -22
108 -29 166 -8 58 -23 169 -34 246 -11 77 -29 210 -41 295 -11 85 -22 166 -25
180 -2 14 -11 81 -20 150 -9 69 -18 134 -20 145 -4 22 -35 274 -59 475 -8 69
-16 190 -17 269 l-3 144 28 23 c34 30 44 30 78 1z m-313 -18 c10 -17 22 -51
26 -77 3 -26 9 -56 11 -67 2 -11 13 -90 24 -175 41 -331 61 -491 80 -640 19
-145 33 -256 80 -635 10 -82 29 -226 41 -320 32 -245 32 -273 3 -302 -29 -29
-93 -32 -117 -5 -28 31 -36 80 -87 507 -11 88 -22 178 -25 200 -3 22 -15 117
-26 210 -33 272 -95 774 -108 870 -15 104 -24 376 -14 409 7 21 19 33 44 42
48 17 47 18 68 -17z m-326 2 c39 -15 45 -40 73 -316 2 -22 13 -130 24 -240 10
-110 26 -267 35 -350 22 -214 21 -209 45 -440 12 -115 30 -291 40 -390 10 -99
28 -238 39 -309 24 -155 21 -178 -25 -200 -49 -23 -76 -20 -107 12 -21 22 -28
42 -37 112 -6 47 -13 101 -15 120 -20 146 -38 311 -65 580 -20 197 -43 432
-80 795 -45 445 -50 501 -43 525 7 24 8 35 12 73 2 30 58 45 104 28z m-294
-90 c0 -64 -12 -47 -25 35 -6 45 -6 48 9 35 12 -10 17 -29 16 -70z m3040 14
c83 -71 47 -185 -59 -185 -41 0 -104 61 -98 95 3 14 2 25 -3 25 -15 0 13 60
34 75 34 24 91 19 126 -10z m-425 -20 c52 -48 60 -109 19 -155 -21 -23 -37
-31 -64 -32 -93 -3 -157 124 -94 187 34 35 101 35 139 0z m-453 0 c59 -31 89
-123 52 -160 -59 -60 -159 -37 -193 44 -10 26 -9 36 6 68 29 59 79 77 135 48z
m-431 -30 c35 -18 53 -49 45 -75 -4 -12 -2 -20 4 -20 6 0 11 -13 11 -29 0 -44
-52 -85 -101 -78 -46 6 -89 34 -89 58 0 10 -4 21 -10 24 -13 8 -13 51 1 78 28
54 83 71 139 42z m-2173 -337 c37 -72 57 -230 55 -437 -2 -190 -3 -198 -42
-357 -37 -151 -72 -264 -90 -289 -4 -5 -17 -35 -29 -66 -17 -43 -30 -59 -54
-71 -28 -13 -36 -14 -51 -2 -18 12 -15 24 55 231 40 120 76 238 80 263 37 235
40 284 29 414 -11 131 -34 278 -46 298 -8 13 34 47 58 48 10 0 25 -15 35 -32z
m-950 -47 c9 -14 9 -58 2 -177 -5 -86 -11 -160 -14 -162 -2 -3 -20 7 -40 22
l-35 27 0 124 c0 118 1 125 26 154 30 36 44 39 61 12z m722 -26 c21 -43 31
-189 32 -425 0 -201 -1 -207 -32 -315 -39 -136 -61 -174 -101 -175 -30 0 -29
36 1 159 30 117 30 127 31 373 1 139 -2 284 -6 322 -6 61 -5 71 12 83 26 19
47 12 63 -22z m-489 -11 c2 -3 7 -80 11 -172 4 -92 14 -203 23 -247 21 -117
30 -202 19 -190 -23 26 -81 102 -91 120 -6 12 -13 41 -16 65 -3 25 -10 77 -15
115 -14 93 -14 281 0 307 8 15 17 18 37 13 15 -4 29 -9 32 -11z m246 -27 c1
-1 9 -25 18 -54 30 -92 41 -342 20 -479 -3 -21 -13 -35 -29 -42 -22 -10 -26
-9 -39 16 -8 15 -17 50 -20 77 -3 28 -13 106 -21 175 -21 177 -20 296 3 309
13 9 62 7 68 -2z m4034 -160 c33 -17 70 -74 70 -109 0 -16 -4 -27 -9 -24 -5 4
-7 -4 -4 -15 14 -51 -82 -77 -144 -39 -40 24 -51 44 -51 99 -1 78 69 123 138
88z m-408 -45 c78 -72 48 -182 -51 -182 -45 0 -91 28 -91 56 0 7 -5 14 -11 16
-15 5 -14 70 1 98 15 27 63 48 98 42 15 -2 39 -16 54 -30z m-440 -19 c32 -28
50 -79 42 -119 -13 -72 -103 -99 -163 -48 -58 48 -59 147 -3 179 34 19 96 13
124 -12z m-462 -6 c37 -19 72 -85 66 -126 -8 -50 -41 -81 -88 -81 -78 0 -128
45 -128 116 0 82 76 129 150 91z m-3991 -86 c7 -16 11 -46 9 -67 -3 -35 -6
-39 -32 -42 -46 -6 -75 6 -91 38 -13 26 -14 35 -3 58 12 25 32 33 94 41 6 0
17 -12 23 -28z m-330 -25 c32 -35 21 -93 -22 -111 -43 -18 -75 -2 -83 42 -11
58 9 84 72 92 6 0 21 -10 33 -23z m2625 -346 c3 -19 12 -100 21 -180 9 -80 18
-158 20 -175 2 -16 13 -109 24 -205 11 -96 27 -219 35 -274 9 -58 11 -105 6
-115 -5 -9 -11 -24 -14 -34 -7 -22 -46 -37 -96 -37 -37 0 -40 2 -49 38 -11 40
-22 131 -51 437 -11 110 -24 238 -29 285 -8 79 -7 96 25 235 19 83 39 197 45
255 6 58 13 112 17 120 3 8 13 -59 23 -150 10 -91 21 -181 23 -200z m-2023
310 c23 -13 25 -52 4 -70 -8 -6 -29 -13 -47 -13 -30 -2 -33 1 -36 31 -5 54 30
78 79 52z m-915 -77 c3 -10 10 -26 15 -35 20 -38 6 -61 -43 -73 -53 -13 -87
54 -52 103 19 28 72 31 80 5z m668 -211 c-1 -72 -55 -107 -88 -57 -31 46 -17
83 35 95 49 11 54 8 53 -38z m-944 8 c41 -41 39 -98 -3 -118 -35 -17 -58 -9
-80 27 -23 40 -21 58 9 86 32 30 48 31 74 5z m620 5 c13 -16 6 -81 -12 -102
-6 -7 -23 -13 -38 -13 -56 0 -62 98 -8 120 33 13 44 12 58 -5z m-299 -131 c20
-24 -8 -98 -39 -102 -51 -8 -72 59 -30 98 26 24 51 26 69 4z m904 -24 c0 -18
-45 -30 -63 -17 -9 7 -10 13 0 24 14 18 63 13 63 -7z m5114 -55 c55 -28 76
-112 42 -170 -15 -26 -24 -30 -68 -33 -45 -3 -55 1 -86 28 -31 27 -35 36 -35
82 -1 43 4 55 28 79 32 33 74 38 119 14z m-427 -42 c47 -42 60 -102 33 -152
-26 -50 -107 -57 -155 -12 -58 53 -50 154 13 181 30 13 86 4 109 -17z m-454
-19 c55 -38 70 -132 27 -178 -74 -80 -218 30 -175 135 7 16 22 36 34 44 27 20
86 19 114 -1z m-444 -25 c42 -33 59 -75 51 -126 -11 -73 -65 -107 -133 -81
-45 17 -75 65 -76 123 -2 87 91 137 158 84z m-4360 -15 c31 -12 15 -110 -21
-127 -22 -10 -27 -8 -44 13 -24 33 -24 71 1 98 21 23 37 26 64 16z m334 -13
c19 -11 -4 -98 -29 -112 -25 -13 -40 -3 -32 19 6 15 5 15 -11 3 -40 -33 -45
47 -4 82 22 18 55 22 76 8z m-917 -51 c13 -7 18 -18 15 -33 -3 -12 -7 -33 -10
-46 -9 -42 -46 -53 -78 -24 -24 21 -23 54 3 87 22 28 39 32 70 16z m303 -113
c15 -11 17 -21 11 -55 -9 -57 -47 -79 -79 -46 -22 22 -20 70 4 94 23 23 39 25
64 7z m876 -66 c0 -59 0 -59 -32 -64 -26 -4 -37 0 -50 17 -39 48 -9 106 54
106 27 0 28 -1 28 -59z m-518 -146 c-2 -48 -20 -83 -29 -59 -2 7 -13 10 -24 7
-43 -12 -64 41 -33 85 12 18 24 22 52 20 l37 -3 -3 -50z m296 -48 c6 -7 8 -31
5 -53 -5 -38 -7 -40 -42 -40 -20 0 -39 4 -43 10 -33 48 43 127 80 83z m-814
-55 c7 -21 2 -74 -8 -91 -9 -15 -59 -14 -74 1 -17 17 -15 68 5 90 21 24 70 24
77 0z m1180 -15 c17 -24 18 -65 3 -84 -12 -16 -69 -17 -85 -1 -19 19 -14 57
13 83 30 31 50 32 69 2z m-895 -60 c14 -18 7 -97 -10 -108 -56 -36 -108 52
-59 101 23 23 53 26 69 7z m1221 -28 c6 -11 10 -37 8 -57 -3 -30 -8 -38 -27
-40 -39 -6 -71 17 -71 50 0 15 6 37 12 48 17 27 64 26 78 -1z m-932 -65 c21
-6 23 -12 20 -58 -3 -50 -4 -51 -38 -54 -58 -6 -80 50 -38 95 24 25 23 25 56
17z m-910 -86 c14 -17 13 -85 -1 -96 -21 -16 -56 -20 -66 -8 -8 9 -3 28 17 64
29 55 34 59 50 40z m1215 -10 c12 -9 16 -25 14 -53 -2 -37 -4 -40 -41 -48 -29
-7 -40 -6 -47 4 -15 24 -10 68 11 89 23 23 39 25 63 8z m-887 -102 c15 -63
-11 -105 -58 -93 -43 11 -45 82 -4 109 24 16 56 8 62 -16z m1166 12 c20 -16
31 -85 15 -95 -17 -11 -61 -11 -74 0 -20 15 -15 58 9 84 25 27 29 27 50 11z
m-790 -91 c3 -23 3 -47 0 -54 -5 -17 -39 -26 -67 -19 -47 12 -41 97 8 115 38
14 55 2 59 -42z m1105 11 c16 -20 24 -76 12 -84 -18 -11 -64 -12 -76 -2 -18
14 -16 49 3 76 17 24 46 29 61 10z m-811 -113 c2 -52 -6 -65 -43 -65 -47 0
-68 54 -37 98 12 17 24 22 47 20 31 -3 32 -5 33 -53z m1117 1 c25 -53 17 -68
-35 -64 -41 3 -43 4 -46 39 -3 40 19 72 47 67 9 -2 24 -21 34 -42z m-2383 -23
c0 -41 -13 -55 -46 -51 -40 4 -40 29 -1 55 43 28 47 28 47 -4z m351 -72 c5
-35 2 -48 -13 -63 -41 -41 -94 -9 -84 51 6 42 31 63 66 59 21 -3 26 -9 31 -47z
m394 -12 c16 -25 15 -87 0 -103 -52 -52 -113 29 -69 92 16 23 58 30 69 11z
m868 -2 c12 -8 18 -28 20 -57 l2 -45 -45 0 c-45 0 -45 0 -48 38 -2 26 2 45 14
58 20 22 34 24 57 6z m322 -103 c17 -11 25 -26 25 -44 0 -50 -9 -60 -55 -60
-45 0 -55 10 -55 56 0 24 31 64 50 64 6 0 22 -7 35 -16z m-919 -72 c16 -10 25
-82 13 -103 -12 -23 -61 -25 -83 -3 -44 43 20 140 70 106z m323 -11 c6 -10 8
-21 5 -24 -3 -3 0 -14 7 -25 18 -28 -3 -52 -45 -52 -39 0 -56 15 -56 50 0 58
66 95 89 51z m933 -28 c19 -41 18 -44 -21 -72 l-29 -21 -25 24 c-22 21 -25 29
-17 55 13 45 18 51 48 51 21 -1 31 -9 44 -37z m-2159 -10 c5 -17 7 -43 3 -57
-5 -22 -12 -26 -41 -26 -37 0 -55 20 -55 61 0 61 77 80 93 22z m427 -53 c16
-61 -3 -88 -60 -80 -8 1 -21 9 -27 18 -31 39 -1 102 47 102 26 0 31 -5 40 -40z
m1194 -86 c21 -21 20 -36 -5 -68 -30 -38 -59 -31 -77 16 -12 30 -12 41 -2 53
16 20 64 19 84 -1z m-943 -83 c9 -79 9 -95 -3 -102 -19 -13 -62 -11 -76 3 -34
34 11 123 57 111 12 -3 21 -8 22 -12z m1277 -3 c6 -7 13 -29 17 -49 5 -26 2
-39 -10 -49 -20 -17 -62 -4 -81 25 -12 18 -11 25 6 53 20 33 50 42 68 20z
m-1764 -43 c22 -22 31 -82 16 -100 -15 -18 -61 -20 -78 -3 -19 19 -14 76 8 98
24 24 34 25 54 5z m1139 -30 c42 -39 33 -65 -26 -79 -57 -14 -86 32 -51 82 20
29 43 28 77 -3z m-323 -35 c11 -11 20 -24 20 -30 0 -5 -9 -19 -20 -30 -36 -36
-80 -20 -80 30 0 50 44 66 80 30z m715 -141 c9 -17 15 -40 13 -52 -3 -19 -9
-22 -48 -22 -43 0 -45 1 -48 32 -7 72 52 102 83 42z m-1267 -15 c12 -8 22 -22
22 -31 0 -23 -39 -63 -61 -63 -36 0 -52 66 -23 94 19 20 34 20 62 0z m980
-126 c33 -28 -29 -105 -66 -82 -21 13 -28 70 -11 90 13 16 53 12 77 -8z m-659
-39 c30 -50 -1 -89 -53 -69 -21 8 -26 16 -26 43 0 62 48 78 79 26z m326 -15
c42 -45 27 -84 -31 -84 -39 0 -58 21 -50 54 7 27 31 56 47 56 6 0 21 -12 34
-26z"/>
<path d="M8845 2540 c3 -5 8 -10 11 -10 2 0 4 5 4 10 0 6 -5 10 -11 10 -5 0
-7 -4 -4 -10z"/>
</g>
</svg>
